# xmcd CD database file
#
# Track frame offsets:
#	150
#	16775
#	30962
#	47425
#	68500
#	85175
#	103550
#	121650
#	140637
#	158425
#
# Disc length: 2257 seconds
#
# Revision: 2
# Processed by: cddbd v1.5.1PL2 Copyright (c) Steve Scherf et al.
# Submitted via: CDex 1.51
#
DISCID=6408cf0a
DTITLE=葉樹茵 - 非常屬於我
DYEAR=1994
DGENRE=國語流行
TTITLE0=非常屬於我
TTITLE1=美麗島
TTITLE2=人生火車
TTITLE3=城市
TTITLE4=小王子
TTITLE5=決定
TTITLE6=昏倒了
TTITLE7=月亮永遠見不到太陽
TTITLE8=愛你到老
TTITLE9=路
EXTD=YEAR: 1994
EXTT0=
EXTT1=
EXTT2=
EXTT3=
EXTT4=
EXTT5=
EXTT6=
EXTT7=
EXTT8=
EXTT9=
PLAYORDER=
